<svg width="160" height="49" viewBox="0 0 160 49" fill="none" xmlns="http://www.w3.org/2000/svg">
<path d="M143 32.25L131.742 12.75L154.258 12.75L143 32.25Z" fill="#E6BB4E"/>
<path fill-rule="evenodd" clip-rule="evenodd" d="M150.336 23.5441C150.66 24.0047 150.942 24.5365 151.181 25.1395C151.857 26.8425 152.195 29.4229 152.195 32.8806C152.195 36.3383 151.857 38.9187 151.181 40.6218C150.505 42.3248 149.491 43.4602 148.139 44.0279C146.839 44.5956 145.253 44.8794 143.381 44.8794C141.509 44.8794 139.896 44.5956 138.544 44.0279C137.192 43.4602 136.152 42.3248 135.424 40.6218C134.748 38.9187 134.41 36.3383 134.41 32.8806C134.41 29.4229 134.748 26.8425 135.424 25.1395C135.589 24.7535 135.77 24.3967 135.967 24.0691L132.92 18.7903C132.344 19.0817 131.801 19.4176 131.29 19.7981C129.886 20.8818 128.82 22.4817 128.092 24.5976C127.364 26.7135 127 29.4745 127 32.8806C127 36.2867 127.364 39.0477 128.092 41.1637C128.82 43.2796 129.886 44.8794 131.29 45.9632C132.746 47.0469 134.462 47.7952 136.438 48.2081C138.466 48.5694 140.78 48.75 143.381 48.75C145.877 48.75 148.113 48.5694 150.089 48.2081C152.117 47.7952 153.833 47.0727 155.237 46.0406C156.641 44.9568 157.707 43.357 158.435 41.2411C159.215 39.1252 159.605 36.3383 159.605 32.8806C159.605 29.4745 159.215 26.7135 158.435 24.5976C157.707 22.4817 156.641 20.8818 155.237 19.7981C154.619 19.3214 153.941 18.9146 153.203 18.5776L150.336 23.5441Z" fill="#456D4D"/>
<path d="M143.517 18.25C142.518 13.5833 142.399 4.71039 148.511 6.75C154.504 8.75 156.002 5.25 158 2.25" stroke="#E6BB4E"/>
<circle cx="158" cy="2.25" r="2" fill="#E6BB4E"/>
<path d="M0 48.3428V16.0622C0 14.514 0.182006 13.585 0.546019 13.2754C0.910032 12.9141 1.79406 12.7335 3.19811 12.7335H9.12632L20.9047 38.6664L21.0607 39.2857L21.2168 39.1309L21.3728 38.5116L32.9952 12.7335H39.3134C40.6134 12.7335 41.4455 12.8883 41.8095 13.198C42.2255 13.5076 42.4335 14.2817 42.4335 15.5203V45.4786C42.4335 46.3559 42.3555 47.001 42.1995 47.4139C42.0435 47.7751 41.7315 48.0332 41.2635 48.188C40.8474 48.2912 40.2234 48.3428 39.3914 48.3428H34.3992V21.3262L34.0092 22.797L22.4648 48.3428H17.3166L6.08422 23.2615L5.6942 21.8681V48.3428H0Z" fill="#456D4D"/>
<path d="M59.3826 17.4556V38.1245C59.3826 40.4985 60.0327 42.1757 61.3327 43.1563C62.6328 44.1368 64.6608 44.6271 67.4169 44.6271C70.381 44.6271 72.4871 44.111 73.7352 43.0788C75.0352 42.0467 75.6852 40.3952 75.6852 38.1245V17.4556C75.7372 17.4556 75.9452 17.4556 76.3092 17.4556C76.7253 17.4556 77.1673 17.4556 77.6353 17.4556C78.1033 17.4556 78.5453 17.4556 78.9613 17.4556C79.3774 17.4556 79.6374 17.4556 79.7414 17.4556C80.5734 17.4556 81.2234 17.5072 81.6914 17.6104C82.1595 17.6621 82.4715 17.8943 82.6275 18.3071C82.8355 18.6684 82.9395 19.2877 82.9395 20.165V37.0407C82.9395 39.776 82.5235 42.0209 81.6914 43.7756C80.8594 45.4786 79.2994 46.743 77.0113 47.5687C74.7752 48.3428 71.5511 48.7299 67.3389 48.7299C63.3868 48.7299 60.2927 48.3944 58.0566 47.7235C55.8725 47.0526 54.3125 45.9173 53.3764 44.3174C52.4924 42.666 52.0504 40.421 52.0504 37.5826V20.165C52.0504 19.0813 52.2324 18.3588 52.5964 17.9975C52.9604 17.6362 53.6884 17.4556 54.7805 17.4556C55.5605 17.4556 56.3145 17.4556 57.0426 17.4556C57.8226 17.4556 58.6026 17.4556 59.3826 17.4556Z" fill="#456D4D"/>
<path d="M98.5583 48.6525C95.8022 48.6525 93.8261 48.1106 92.6301 47.0268C91.4341 45.8915 90.836 43.9046 90.836 41.0661V12.3465C90.836 11.5207 90.888 10.9014 90.992 10.4886C91.148 10.0241 91.4341 9.71447 91.8501 9.55964C92.2661 9.35321 92.8901 9.25 93.7222 9.25H98.2463C98.2463 9.35321 98.1943 9.76607 98.0903 10.4886C98.0383 11.2111 98.0123 12.0626 98.0123 13.0432V40.1372C98.0123 42.0467 98.2463 43.4143 98.7143 44.24C99.1823 45.0657 100.066 45.4786 101.366 45.4786C101.782 45.4786 102.276 45.427 102.848 45.3238C103.472 45.2206 103.862 45.1432 104.019 45.0915V48.0332C103.706 48.0848 103.16 48.188 102.38 48.3428C101.6 48.5493 100.326 48.6525 98.5583 48.6525Z" fill="#456D4D"/>
<path d="M116.612 48.6525C113.856 48.6525 111.88 48.1106 110.683 47.0268C109.487 45.8915 108.889 43.9046 108.889 41.0661V12.3465C108.889 11.5207 108.941 10.9014 109.045 10.4886C109.201 10.0241 109.487 9.71447 109.903 9.55964C110.319 9.35321 110.943 9.25 111.776 9.25H116.3C116.3 9.35321 116.248 9.76607 116.144 10.4886C116.092 11.2111 116.066 12.0626 116.066 13.0432V40.1372C116.066 42.0467 116.3 43.4143 116.768 44.24C117.236 45.0657 118.12 45.4786 119.42 45.4786C119.836 45.4786 120.33 45.427 120.902 45.3238C121.526 45.2206 121.916 45.1432 122.072 45.0915V48.0332C121.76 48.0848 121.214 48.188 120.434 48.3428C119.654 48.5493 118.38 48.6525 116.612 48.6525Z" fill="#456D4D"/>
</svg>
