<svg width="203" height="298" viewBox="0 0 203 298" fill="none" xmlns="http://www.w3.org/2000/svg">
<path d="M98.7426 196.37L29.6976 76.7807L167.788 76.7807L98.7426 196.37Z" fill="#E6BB4E"/>
<path fill-rule="evenodd" clip-rule="evenodd" d="M143.75 143.005C145.73 145.824 147.451 149.077 148.915 152.764C153.06 163.208 155.133 179.033 155.133 200.238C155.133 221.444 153.06 237.269 148.915 247.713C144.769 258.158 138.55 265.121 130.258 268.602C122.285 272.084 112.558 273.825 101.077 273.825C89.596 273.825 79.7096 272.084 71.4178 268.602C63.126 265.121 56.7476 258.158 52.2828 247.713C48.1368 237.269 46.0639 221.444 46.0639 200.238C46.0639 179.033 48.1368 163.208 52.2828 152.764C53.2995 150.385 54.4154 148.187 55.6306 146.17L36.9487 113.812C33.4113 115.602 30.0713 117.667 26.9289 120.006C18.3182 126.652 11.7804 136.464 7.31554 149.44C2.85071 162.417 0.618317 179.35 0.618317 200.238C0.618317 221.127 2.85071 238.06 7.31554 251.037C11.7804 264.013 18.3182 273.825 26.9289 280.471C35.8586 287.118 46.3828 291.707 58.5017 294.239C70.9394 296.454 85.1312 297.562 101.077 297.562C116.385 297.562 130.098 296.454 142.217 294.239C154.655 291.707 165.179 287.276 173.79 280.946C182.401 274.299 188.938 264.488 193.403 251.511C198.187 238.535 200.579 221.444 200.579 200.238C200.579 179.35 198.187 162.417 193.403 149.44C188.938 136.464 182.401 126.652 173.79 120.006C170.01 117.088 165.861 114.597 161.343 112.533L143.75 143.005Z" fill="#456D4D"/>
<path fill-rule="evenodd" clip-rule="evenodd" d="M172.742 40.3012C163.246 47.2153 150.596 49.419 131.526 43.0549C122.86 40.1631 117.055 41.3085 113.021 44.3018C108.8 47.4342 105.826 53.0875 104.033 60.5774C100.454 75.5322 102.075 95.7522 105.089 109.833L98.7555 111.188C95.6436 96.6487 93.838 75.3509 97.7344 59.07C99.6797 50.9419 103.169 43.5479 109.161 39.1009C115.341 34.5149 123.5 33.549 133.576 36.9115C151.26 42.813 161.58 40.417 168.93 35.0655C172.742 32.2901 175.952 28.5785 179.019 24.2983C180.968 21.5785 182.749 18.7957 184.587 15.9257C185.703 14.1814 186.841 12.4049 188.049 10.5908L193.439 14.1804C192.373 15.7816 191.292 17.4684 190.195 19.1806C188.277 22.1737 186.309 25.2442 184.284 28.0705C181.034 32.6062 177.353 36.9439 172.742 40.3012Z" fill="#E6BB4E"/>
<ellipse cx="190.734" cy="12.3867" rx="12.2656" ry="12.2656" fill="#E6BB4E"/>
</svg>
